# xmcd
#
# Track frame offsets:
#	150
#	21545
#	43677
#	62451
#	83835
#	102619
#	122597
#	141073
#	165554
#	183915
#	203889
#	226991
#	244963
#	266424
#
# Disc length: 3797 seconds
#
# Revision: 2
# Processed by: cddbd v1.5.2PL0 Copyright (c) Steve Scherf et al.
# Submitted via: EZCDAudioConverter 8.0.2.1
#
DISCID=bf0ed30e
DTITLE=Nguyễn Phi Hùng - Vol 06. Tình Mộng
DYEAR=2003
DGENRE=
TTITLE0=Nguyễn Phi Hùng - Tình mộng 
TTITLE1=Nguyễn Phi Hùng - Tình chỉ là giấc mơ
TTITLE2=Nguyễn Phi Hùng - Bước chân bên thềm
TTITLE3=Nguyễn Phi Hùng, Mỹ Tâm - Rồi khi nhớ nhau
TTITLE4=Nguyễn Phi Hùng - Tình yêu tìm đâu
TTITLE5=Nguyễn Phi Hùng - Anh ta hơn anh sao?
TTITLE6=Nguyễn Phi Hùng - Lời yêu thánh thót
TTITLE7=Nguyễn Phi Hùng - Chân dung mẹ
TTITLE8=Nguyễn Phi Hùng - Trái tim chung tình
TTITLE9=Nguyễn Phi Hùng - Đứng giữa đồng không
TTITLE10=Nguyễn Phi Hùng - Tuổi thanh xuân
TTITLE11=Soundtrack - Đứng quên em nhé
TTITLE12=Soundtrack - Tình mộng
TTITLE13=Soundtrack - Trái tim chung tình
EXTD=
EXTT0=
EXTT1=
EXTT2=
EXTT3=
EXTT4=
EXTT5=
EXTT6=
EXTT7=
EXTT8=
EXTT9=
EXTT10=
EXTT11=
EXTT12=
EXTT13=
PLAYORDER=
